<svg width="1878" height="210" viewBox="0 0 1878 210" fill="none" xmlns="http://www.w3.org/2000/svg">
<path d="M1802.16 171.527C1802.16 166.296 1803.14 161.391 1805.1 156.813C1807.06 152.142 1809.77 148.125 1813.23 144.761C1816.69 141.305 1820.7 138.595 1825.28 136.633C1829.86 134.671 1834.76 133.69 1840 133.69C1845.13 133.69 1849.99 134.671 1854.57 136.633C1859.15 138.595 1863.16 141.305 1866.62 144.761C1870.08 148.125 1872.79 152.142 1874.75 156.813C1876.71 161.391 1877.69 166.296 1877.69 171.527C1877.69 176.759 1876.71 181.664 1874.75 186.242C1872.79 190.726 1870.08 194.697 1866.62 198.153C1863.16 201.61 1859.15 204.319 1854.57 206.281C1849.99 208.243 1845.13 209.224 1840 209.224C1834.76 209.224 1829.86 208.243 1825.28 206.281C1820.7 204.319 1816.69 201.61 1813.23 198.153C1809.77 194.697 1807.06 190.726 1805.1 186.242C1803.14 181.664 1802.16 176.759 1802.16 171.527Z" fill="#E64C4C"/>
<path d="M1527.91 192.828C1531.93 192.828 1535.81 192.735 1539.54 192.548C1543.37 192.268 1546.74 191.847 1549.63 191.287C1552.53 190.726 1554.82 189.932 1556.5 188.904C1558.27 187.877 1559.16 186.522 1559.16 184.84V38.6777L1542.06 16.2559H1525.39V5.3252H1647.87L1737.98 124.021V24.5239C1737.98 22.8423 1737.37 21.4876 1736.15 20.46C1735.03 19.3389 1733.35 18.498 1731.11 17.9375C1728.87 17.2835 1726.16 16.8631 1722.98 16.6763C1719.8 16.396 1716.21 16.2559 1712.19 16.2559V5.3252H1775.67V16.2559C1767.64 16.2559 1761.33 16.7697 1756.75 17.7974C1752.18 18.825 1749.89 21.0672 1749.89 24.5239V203.899H1678.84L1571.07 54.373V184.14C1571.07 186.008 1571.82 187.503 1573.31 188.624C1574.9 189.745 1577.01 190.633 1579.62 191.287C1582.33 191.847 1585.51 192.268 1589.15 192.548C1592.79 192.735 1596.67 192.828 1600.78 192.828V203.899H1527.91V192.828Z" fill="#E64C4C"/>
<path d="M1275.8 192.828H1300.33V16.2559H1275.8V5.3252H1492.88V73.5718H1483.35L1444.39 16.2559H1397.02V99.6372H1418.18L1436.68 53.3921H1445.79V157.093H1436.68L1418.18 110.568H1397.02V192.828H1449.29L1489.93 129.066H1499.6V203.899H1275.8V192.828Z" fill="#E64C4C"/>
<path d="M1039.67 127.665H1049.06C1051.4 132.242 1054.3 137.194 1057.75 142.519C1061.21 147.751 1065.27 152.983 1069.94 158.214C1074.62 163.446 1079.94 168.491 1085.92 173.349C1091.9 178.114 1098.58 182.318 1105.96 185.961C1113.34 189.605 1121.47 192.548 1130.34 194.79C1139.22 196.939 1148.93 198.013 1159.49 198.013C1162.57 198.013 1166.03 197.873 1169.86 197.593C1173.69 197.219 1177.29 196.518 1180.65 195.491C1184.02 194.37 1186.82 192.828 1189.06 190.866C1191.4 188.811 1192.56 186.102 1192.56 182.738C1192.56 179.188 1191.07 176.058 1188.08 173.349C1185.18 170.546 1180.75 167.884 1174.77 165.361C1168.79 162.745 1161.22 160.13 1152.06 157.514C1143 154.898 1132.3 151.955 1119.97 148.685C1092.51 141.585 1072.14 131.682 1058.87 118.976C1045.7 106.177 1039.11 90.575 1039.11 72.1704C1039.11 60.6792 1041.45 50.4492 1046.12 41.4805C1050.89 32.5117 1057.33 24.991 1065.46 18.9185C1073.68 12.7524 1083.26 8.08122 1094.19 4.90479C1105.21 1.63493 1116.94 0 1129.36 0C1135.71 0 1142.35 0.560547 1149.26 1.68164C1156.27 2.80273 1163.09 4.34424 1169.72 6.30615C1176.35 8.26807 1182.61 10.6504 1188.5 13.4531C1194.39 16.1624 1199.52 19.152 1203.91 22.4219L1225.08 1.96191H1234.74V62.9214H1225.92C1221.81 55.5409 1216.53 48.6742 1210.08 42.3213C1203.63 35.9684 1196.25 30.4564 1187.94 25.7852C1179.62 21.1139 1170.42 17.4237 1160.33 14.7144C1150.24 12.005 1139.55 10.6504 1128.24 10.6504C1126.09 10.6504 1123.34 10.7438 1119.97 10.9307C1116.61 11.0241 1113.29 11.4912 1110.02 12.332C1106.85 13.1729 1104.09 14.5275 1101.75 16.396C1099.42 18.1711 1098.25 20.6935 1098.25 23.9634C1098.25 29.2886 1103.06 34.4269 1112.69 39.3784C1122.4 44.2365 1136.84 49.188 1155.99 54.2329C1164.12 56.3817 1171.96 58.6706 1179.53 61.0996C1187.1 63.4352 1194.15 66.1445 1200.69 69.2275C1207.32 72.2171 1213.3 75.6738 1218.63 79.5977C1224.05 83.4281 1228.67 87.9591 1232.5 93.1909C1236.33 98.4227 1239.28 104.402 1241.33 111.128C1243.48 117.855 1244.55 125.609 1244.55 134.391C1244.55 144.574 1242.69 154.197 1238.95 163.259C1235.21 172.321 1229.61 180.263 1222.13 187.083C1214.75 193.903 1205.55 199.321 1194.53 203.338C1183.5 207.262 1170.75 209.224 1156.27 209.224C1148.33 209.224 1140.85 208.617 1133.85 207.402C1126.84 206.188 1120.02 204.366 1113.39 201.937C1106.85 199.508 1100.35 196.472 1093.91 192.828C1087.46 189.091 1080.83 184.747 1074.01 179.795L1050.18 206.562H1039.67V127.665Z" fill="#E64C4C"/>
<path d="M854.273 192.828H878.797V16.2559H854.273V5.3252H999.875V16.2559H975.492V192.828H999.875V203.899H854.273V192.828Z" fill="#E64C4C"/>
<path d="M559.706 192.828H584.23V16.2559H559.706V5.3252H705.308V16.2559H680.924V103.981L764.586 24.5239C765.053 24.0568 765.333 23.7298 765.427 23.543C765.52 23.2627 765.567 22.9357 765.567 22.562C765.567 21.3475 764.446 20.3198 762.204 19.479C760.055 18.6382 757.346 17.9842 754.076 17.5171C750.806 17.05 747.256 16.723 743.425 16.5361C739.688 16.3493 736.185 16.2559 732.915 16.2559V5.3252H819.239V16.2559C813.447 16.2559 808.542 16.396 804.525 16.6763C800.508 16.9565 797.051 17.4704 794.155 18.2178C791.352 18.8717 788.97 19.7593 787.008 20.8804C785.046 21.908 783.177 23.2627 781.402 24.9443L753.375 51.5703L819.94 192.828H837.737V203.899H706.709V192.828H720.583L687.23 114.632L680.924 120.658V192.828H694.798V203.899H559.706V192.828Z" fill="#E64C4C"/>
<path d="M278.592 192.828C286.159 192.828 291.951 192.314 295.969 191.287C300.079 190.259 302.695 188.39 303.816 185.681L375.987 5.3252H437.507L522.009 192.828H546.393V203.899H387.478V192.828H414.524L395.186 144.481H333.525L317.129 185.261C317.036 185.541 316.989 185.915 316.989 186.382C316.989 187.69 317.597 188.764 318.811 189.605C320.119 190.352 321.894 191.006 324.136 191.567C326.472 192.034 329.181 192.361 332.264 192.548C335.441 192.735 338.897 192.828 342.634 192.828V203.899H278.592V192.828ZM390.841 133.41L363.795 67.2656L337.87 133.41H390.841Z" fill="#E64C4C"/>
<path d="M0 192.828H24.5239V16.2559H0V5.3252H145.602V16.2559H121.218V103.981L204.88 24.5239C205.347 24.0568 205.627 23.7298 205.721 23.543C205.814 23.2627 205.861 22.9357 205.861 22.562C205.861 21.3475 204.74 20.3198 202.498 19.479C200.349 18.6382 197.639 17.9842 194.37 17.5171C191.1 17.05 187.55 16.723 183.719 16.5361C179.982 16.3493 176.479 16.2559 173.209 16.2559V5.3252H259.533V16.2559C253.741 16.2559 248.836 16.396 244.819 16.6763C240.802 16.9565 237.345 17.4704 234.449 18.2178C231.646 18.8717 229.264 19.7593 227.302 20.8804C225.34 21.908 223.471 23.2627 221.696 24.9443L193.669 51.5703L260.234 192.828H278.031V203.899H147.003V192.828H160.877L127.524 114.632L121.218 120.658V192.828H135.092V203.899H0V192.828Z" fill="#E64C4C"/>
</svg>
